<svg xmlns="http://www.w3.org/2000/svg" xml:space="preserve" style="fill-rule:evenodd;clip-rule:evenodd;stroke-miterlimit:1.5" viewBox="0 0 128 128"><path d="M128 32c0-17.661-14.339-32-32-32H32C14.339 0 0 14.339 0 32v64c0 17.661 14.339 32 32 32h64c17.661 0 32-14.339 32-32V32Z" style="fill:#eceff1"/><path d="M128 0H0v128h128V0Zm-8.163 9.091v109.818H8.163V9.091h111.674Z" style="fill:#263238" transform="matrix(.76563 0 0 .6875 15 33)"/><path d="M31.5 2 44 27H19L31.5 2Z" style="fill:#607d8b" transform="matrix(.8 0 0 .6 20.175 7.8)"/><path d="M31.5 2 44 27H19L31.5 2Z" style="fill:#607d8b" transform="matrix(-.8 0 0 -.6 107.825 25.2)"/><path d="M64 33v88" style="fill:none;stroke:#263238;stroke-width:4.17px"/></svg>